<mxfile host="app.diagrams.net" agent="Mozilla/5.0 (Macintosh; Intel Mac OS X 10_15_7) AppleWebKit/537.36 (KHTML, like Gecko) Chrome/141.0.0.0 Safari/537.36" version="28.2.8">
  <diagram name="Component Architecture" id="FMEXDt4NMadpCSWkVbZi">
    <mxGraphModel dx="2036" dy="1248" grid="1" gridSize="10" guides="1" tooltips="1" connect="1" arrows="1" fold="1" page="1" pageScale="1" pageWidth="827" pageHeight="1169" math="0" shadow="0">
      <root>
        <mxCell id="0" />
        <mxCell id="1" parent="0" />
        <mxCell id="AbzQdMxJWZO2URxCIheY-4" value="FeedPage&#xa;— manages initial data load, scrolling, SSE subscription" style="rounded=1;whiteSpace=wrap;html=1;fillColor=#e1f0ff;strokeColor=#356ebf;fontStyle=1;" vertex="1" parent="1">
          <mxGeometry x="470" y="80" width="320" height="90" as="geometry" />
        </mxCell>
        <mxCell id="AbzQdMxJWZO2URxCIheY-5" value="StoryCard" style="rounded=1;whiteSpace=wrap;html=1;fillColor=#f5f5f5;strokeColor=#666666;fontStyle=1;" vertex="1" parent="1">
          <mxGeometry x="450" y="240" width="360" height="80" as="geometry" />
        </mxCell>
        <mxCell id="AbzQdMxJWZO2URxCIheY-6" style="edgeStyle=orthogonalEdgeStyle;rounded=0;orthogonalLoop=1;jettySize=auto;html=1;endArrow=block;strokeColor=#356ebf;" edge="1" parent="1" source="AbzQdMxJWZO2URxCIheY-4" target="AbzQdMxJWZO2URxCIheY-5">
          <mxGeometry relative="1" as="geometry" />
        </mxCell>
        <mxCell id="AbzQdMxJWZO2URxCIheY-7" value="InfiniteScrollLoader&#xa;(sentinel element)" style="rounded=1;whiteSpace=wrap;html=1;fillColor=#fff2cc;strokeColor=#d6b656;" vertex="1" parent="1">
          <mxGeometry x="990" y="90" width="260" height="70" as="geometry" />
        </mxCell>
        <mxCell id="AbzQdMxJWZO2URxCIheY-8" style="edgeStyle=orthogonalEdgeStyle;rounded=0;orthogonalLoop=1;jettySize=auto;html=1;endArrow=block;strokeColor=#d6b656;" edge="1" parent="1" source="AbzQdMxJWZO2URxCIheY-4" target="AbzQdMxJWZO2URxCIheY-7">
          <mxGeometry relative="1" as="geometry" />
        </mxCell>
        <mxCell id="AbzQdMxJWZO2URxCIheY-9" value="StoryCard Sub-components" style="text;html=1;strokeColor=none;fillColor=none;align=left;verticalAlign=top;fontStyle=1;fontSize=12;" vertex="1" parent="1">
          <mxGeometry x="410" y="480" width="200" height="20" as="geometry" />
        </mxCell>
        <mxCell id="AbzQdMxJWZO2URxCIheY-10" value="StoryHeader&#xa;(avatar, name, timestamp)" style="shape=rectangle;rounded=1;whiteSpace=wrap;html=1;fillColor=#ffffff;strokeColor=#888888;" vertex="1" parent="1">
          <mxGeometry x="10" y="560" width="260" height="70" as="geometry" />
        </mxCell>
        <mxCell id="AbzQdMxJWZO2URxCIheY-11" value="StoryMedia&#xa;(image/video renderer)" style="shape=rectangle;rounded=1;whiteSpace=wrap;html=1;fillColor=#ffffff;strokeColor=#888888;" vertex="1" parent="1">
          <mxGeometry x="630" y="560" width="260" height="70" as="geometry" />
        </mxCell>
        <mxCell id="AbzQdMxJWZO2URxCIheY-12" value="StoryActions&#xa;(Like • Comment • Share)" style="shape=rectangle;rounded=1;whiteSpace=wrap;html=1;fillColor=#ffffff;strokeColor=#888888;" vertex="1" parent="1">
          <mxGeometry x="930" y="550" width="260" height="70" as="geometry" />
        </mxCell>
        <mxCell id="AbzQdMxJWZO2URxCIheY-13" value="CommentList&#xa;(virtualized list)" style="shape=rectangle;rounded=1;whiteSpace=wrap;html=1;fillColor=#ffffff;strokeColor=#888888;" vertex="1" parent="1">
          <mxGeometry x="310" y="560" width="260" height="70" as="geometry" />
        </mxCell>
        <mxCell id="AbzQdMxJWZO2URxCIheY-14" value="CreateComment&#xa;(textarea + post)" style="shape=rectangle;rounded=1;whiteSpace=wrap;html=1;fillColor=#ffffff;strokeColor=#888888;" vertex="1" parent="1">
          <mxGeometry x="1230" y="550" width="260" height="70" as="geometry" />
        </mxCell>
        <mxCell id="AbzQdMxJWZO2URxCIheY-15" style="edgeStyle=orthogonalEdgeStyle;endArrow=block;strokeColor=#666666;" edge="1" parent="1" source="AbzQdMxJWZO2URxCIheY-5" target="AbzQdMxJWZO2URxCIheY-10">
          <mxGeometry relative="1" as="geometry" />
        </mxCell>
        <mxCell id="AbzQdMxJWZO2URxCIheY-16" style="edgeStyle=orthogonalEdgeStyle;endArrow=block;strokeColor=#666666;" edge="1" parent="1" source="AbzQdMxJWZO2URxCIheY-5" target="AbzQdMxJWZO2URxCIheY-11">
          <mxGeometry relative="1" as="geometry" />
        </mxCell>
        <mxCell id="AbzQdMxJWZO2URxCIheY-17" style="edgeStyle=orthogonalEdgeStyle;endArrow=block;strokeColor=#666666;" edge="1" parent="1" source="AbzQdMxJWZO2URxCIheY-5" target="AbzQdMxJWZO2URxCIheY-12">
          <mxGeometry relative="1" as="geometry" />
        </mxCell>
        <mxCell id="AbzQdMxJWZO2URxCIheY-18" style="edgeStyle=orthogonalEdgeStyle;endArrow=block;strokeColor=#666666;" edge="1" parent="1" source="AbzQdMxJWZO2URxCIheY-5" target="AbzQdMxJWZO2URxCIheY-13">
          <mxGeometry relative="1" as="geometry" />
        </mxCell>
        <mxCell id="AbzQdMxJWZO2URxCIheY-19" style="edgeStyle=orthogonalEdgeStyle;endArrow=block;strokeColor=#666666;" edge="1" parent="1" source="AbzQdMxJWZO2URxCIheY-5" target="AbzQdMxJWZO2URxCIheY-14">
          <mxGeometry relative="1" as="geometry" />
        </mxCell>
        <mxCell id="AbzQdMxJWZO2URxCIheY-20" value="Initial load • Pagination • SSE" style="shape=note;whiteSpace=wrap;html=1;fillColor=#fff9c4;strokeColor=#b7a500;" vertex="1" parent="1">
          <mxGeometry x="730" y="40" width="170" height="70" as="geometry" />
        </mxCell>
        <mxCell id="AbzQdMxJWZO2URxCIheY-21" value="Renders post and handles interactions" style="shape=note;whiteSpace=wrap;html=1;fillColor=#fff9c4;strokeColor=#b7a500;" vertex="1" parent="1">
          <mxGeometry x="740" y="200" width="200" height="60" as="geometry" />
        </mxCell>
        <mxCell id="AbzQdMxJWZO2URxCIheY-22" value="Optimization Strategies" style="rounded=1;whiteSpace=wrap;html=1;fillColor=#e8f5e9;strokeColor=#43a047;fontStyle=1;fontSize=16;" vertex="1" parent="1">
          <mxGeometry x="800" y="900" width="360" height="70" as="geometry" />
        </mxCell>
        <mxCell id="AbzQdMxJWZO2URxCIheY-23" value="A. Network Performance" style="rounded=1;whiteSpace=wrap;html=1;fillColor=#e3f2fd;strokeColor=#1e88e5;fontStyle=1;" vertex="1" parent="1">
          <mxGeometry x="460" y="1020" width="340" height="60" as="geometry" />
        </mxCell>
        <mxCell id="AbzQdMxJWZO2URxCIheY-24" style="edgeStyle=orthogonalEdgeStyle;endArrow=block;strokeColor=#43a047;" edge="1" parent="1" source="AbzQdMxJWZO2URxCIheY-22" target="AbzQdMxJWZO2URxCIheY-23">
          <mxGeometry relative="1" as="geometry" />
        </mxCell>
        <mxCell id="AbzQdMxJWZO2URxCIheY-25" value="B. Rendering Performance" style="rounded=1;whiteSpace=wrap;html=1;fillColor=#fff3e0;strokeColor=#fb8c00;fontStyle=1;" vertex="1" parent="1">
          <mxGeometry x="840" y="1020" width="340" height="60" as="geometry" />
        </mxCell>
        <mxCell id="AbzQdMxJWZO2URxCIheY-26" style="edgeStyle=orthogonalEdgeStyle;endArrow=block;strokeColor=#43a047;" edge="1" parent="1" source="AbzQdMxJWZO2URxCIheY-22" target="AbzQdMxJWZO2URxCIheY-25">
          <mxGeometry relative="1" as="geometry" />
        </mxCell>
        <mxCell id="AbzQdMxJWZO2URxCIheY-27" value="C. JS Performance" style="rounded=1;whiteSpace=wrap;html=1;fillColor=#f3e5f5;strokeColor=#8e24aa;fontStyle=1;" vertex="1" parent="1">
          <mxGeometry x="1220" y="1020" width="340" height="60" as="geometry" />
        </mxCell>
        <mxCell id="AbzQdMxJWZO2URxCIheY-28" style="edgeStyle=orthogonalEdgeStyle;endArrow=block;strokeColor=#43a047;" edge="1" parent="1" source="AbzQdMxJWZO2URxCIheY-22" target="AbzQdMxJWZO2URxCIheY-27">
          <mxGeometry relative="1" as="geometry" />
        </mxCell>
        <mxCell id="AbzQdMxJWZO2URxCIheY-29" value="Gzip/Brotli compression." style="shape=rectangle;rounded=1;whiteSpace=wrap;html=1;fillColor=#ffffff;strokeColor=#1e88e5;" vertex="1" parent="1">
          <mxGeometry x="440" y="1110" width="300" height="50" as="geometry" />
        </mxCell>
        <mxCell id="AbzQdMxJWZO2URxCIheY-30" value="WebP/AVIF images." style="shape=rectangle;rounded=1;whiteSpace=wrap;html=1;fillColor=#ffffff;strokeColor=#1e88e5;" vertex="1" parent="1">
          <mxGeometry x="440" y="1170" width="300" height="50" as="geometry" />
        </mxCell>
        <mxCell id="AbzQdMxJWZO2URxCIheY-31" value="Serve assets via CDN." style="shape=rectangle;rounded=1;whiteSpace=wrap;html=1;fillColor=#ffffff;strokeColor=#1e88e5;" vertex="1" parent="1">
          <mxGeometry x="440" y="1230" width="300" height="50" as="geometry" />
        </mxCell>
        <mxCell id="AbzQdMxJWZO2URxCIheY-32" value="Enable HTTP/2." style="shape=rectangle;rounded=1;whiteSpace=wrap;html=1;fillColor=#ffffff;strokeColor=#1e88e5;" vertex="1" parent="1">
          <mxGeometry x="440" y="1290" width="300" height="50" as="geometry" />
        </mxCell>
        <mxCell id="AbzQdMxJWZO2URxCIheY-33" value="Lazy load heavy media via IntersectionObserver." style="shape=rectangle;rounded=1;whiteSpace=wrap;html=1;fillColor=#ffffff;strokeColor=#1e88e5;" vertex="1" parent="1">
          <mxGeometry x="440" y="1350" width="300" height="60" as="geometry" />
        </mxCell>
        <mxCell id="AbzQdMxJWZO2URxCIheY-34" value="Bundle splitting: vendor vs. app bundles." style="shape=rectangle;rounded=1;whiteSpace=wrap;html=1;fillColor=#ffffff;strokeColor=#1e88e5;" vertex="1" parent="1">
          <mxGeometry x="440" y="1420" width="300" height="60" as="geometry" />
        </mxCell>
        <mxCell id="AbzQdMxJWZO2URxCIheY-35" style="edgeStyle=orthogonalEdgeStyle;endArrow=block;strokeColor=#1e88e5;" edge="1" parent="1" source="AbzQdMxJWZO2URxCIheY-23" target="AbzQdMxJWZO2URxCIheY-29">
          <mxGeometry relative="1" as="geometry" />
        </mxCell>
        <mxCell id="AbzQdMxJWZO2URxCIheY-36" style="edgeStyle=orthogonalEdgeStyle;endArrow=block;strokeColor=#1e88e5;" edge="1" parent="1" source="AbzQdMxJWZO2URxCIheY-23" target="AbzQdMxJWZO2URxCIheY-30">
          <mxGeometry relative="1" as="geometry" />
        </mxCell>
        <mxCell id="AbzQdMxJWZO2URxCIheY-37" style="edgeStyle=orthogonalEdgeStyle;endArrow=block;strokeColor=#1e88e5;" edge="1" parent="1" source="AbzQdMxJWZO2URxCIheY-23" target="AbzQdMxJWZO2URxCIheY-31">
          <mxGeometry relative="1" as="geometry" />
        </mxCell>
        <mxCell id="AbzQdMxJWZO2URxCIheY-38" style="edgeStyle=orthogonalEdgeStyle;endArrow=block;strokeColor=#1e88e5;" edge="1" parent="1" source="AbzQdMxJWZO2URxCIheY-23" target="AbzQdMxJWZO2URxCIheY-32">
          <mxGeometry relative="1" as="geometry" />
        </mxCell>
        <mxCell id="AbzQdMxJWZO2URxCIheY-39" style="edgeStyle=orthogonalEdgeStyle;endArrow=block;strokeColor=#1e88e5;" edge="1" parent="1" source="AbzQdMxJWZO2URxCIheY-23" target="AbzQdMxJWZO2URxCIheY-33">
          <mxGeometry relative="1" as="geometry" />
        </mxCell>
        <mxCell id="AbzQdMxJWZO2URxCIheY-40" style="edgeStyle=orthogonalEdgeStyle;endArrow=block;strokeColor=#1e88e5;" edge="1" parent="1" source="AbzQdMxJWZO2URxCIheY-23" target="AbzQdMxJWZO2URxCIheY-34">
          <mxGeometry relative="1" as="geometry" />
        </mxCell>
        <mxCell id="AbzQdMxJWZO2URxCIheY-41" value="Use SSR or hydration." style="shape=rectangle;rounded=1;whiteSpace=wrap;html=1;fillColor=#ffffff;strokeColor=#fb8c00;" vertex="1" parent="1">
          <mxGeometry x="820" y="1110" width="300" height="50" as="geometry" />
        </mxCell>
        <mxCell id="AbzQdMxJWZO2URxCIheY-42" value="Virtualized list rendering (React Window / VirtualScroller)." style="shape=rectangle;rounded=1;whiteSpace=wrap;html=1;fillColor=#ffffff;strokeColor=#fb8c00;" vertex="1" parent="1">
          <mxGeometry x="820" y="1170" width="300" height="70" as="geometry" />
        </mxCell>
        <mxCell id="AbzQdMxJWZO2URxCIheY-43" value="Use `deferasync` for scripts." style="shape=rectangle;rounded=1;whiteSpace=wrap;html=1;fillColor=#ffffff;strokeColor=#fb8c00;" vertex="1" parent="1">
          <mxGeometry x="820" y="1250" width="300" height="50" as="geometry" />
        </mxCell>
        <mxCell id="AbzQdMxJWZO2URxCIheY-44" value="Memoize components and results." style="shape=rectangle;rounded=1;whiteSpace=wrap;html=1;fillColor=#ffffff;strokeColor=#fb8c00;" vertex="1" parent="1">
          <mxGeometry x="820" y="1310" width="300" height="50" as="geometry" />
        </mxCell>
        <mxCell id="AbzQdMxJWZO2URxCIheY-45" style="edgeStyle=orthogonalEdgeStyle;endArrow=block;strokeColor=#fb8c00;" edge="1" parent="1" source="AbzQdMxJWZO2URxCIheY-25" target="AbzQdMxJWZO2URxCIheY-41">
          <mxGeometry relative="1" as="geometry" />
        </mxCell>
        <mxCell id="AbzQdMxJWZO2URxCIheY-46" style="edgeStyle=orthogonalEdgeStyle;endArrow=block;strokeColor=#fb8c00;" edge="1" parent="1" source="AbzQdMxJWZO2URxCIheY-25" target="AbzQdMxJWZO2URxCIheY-42">
          <mxGeometry relative="1" as="geometry" />
        </mxCell>
        <mxCell id="AbzQdMxJWZO2URxCIheY-47" style="edgeStyle=orthogonalEdgeStyle;endArrow=block;strokeColor=#fb8c00;" edge="1" parent="1" source="AbzQdMxJWZO2URxCIheY-25" target="AbzQdMxJWZO2URxCIheY-43">
          <mxGeometry relative="1" as="geometry" />
        </mxCell>
        <mxCell id="AbzQdMxJWZO2URxCIheY-48" style="edgeStyle=orthogonalEdgeStyle;endArrow=block;strokeColor=#fb8c00;" edge="1" parent="1" source="AbzQdMxJWZO2URxCIheY-25" target="AbzQdMxJWZO2URxCIheY-44">
          <mxGeometry relative="1" as="geometry" />
        </mxCell>
        <mxCell id="AbzQdMxJWZO2URxCIheY-49" value="Debounce scroll handlers." style="shape=rectangle;rounded=1;whiteSpace=wrap;html=1;fillColor=#ffffff;strokeColor=#8e24aa;" vertex="1" parent="1">
          <mxGeometry x="1200" y="1110" width="300" height="50" as="geometry" />
        </mxCell>
        <mxCell id="AbzQdMxJWZO2URxCIheY-50" value="Code-splitting by route." style="shape=rectangle;rounded=1;whiteSpace=wrap;html=1;fillColor=#ffffff;strokeColor=#8e24aa;" vertex="1" parent="1">
          <mxGeometry x="1200" y="1170" width="300" height="50" as="geometry" />
        </mxCell>
        <mxCell id="AbzQdMxJWZO2URxCIheY-51" value="Offload heavy tasks to Web Workers." style="shape=rectangle;rounded=1;whiteSpace=wrap;html=1;fillColor=#ffffff;strokeColor=#8e24aa;" vertex="1" parent="1">
          <mxGeometry x="1200" y="1230" width="300" height="60" as="geometry" />
        </mxCell>
        <mxCell id="AbzQdMxJWZO2URxCIheY-52" style="edgeStyle=orthogonalEdgeStyle;endArrow=block;strokeColor=#8e24aa;" edge="1" parent="1" source="AbzQdMxJWZO2URxCIheY-27" target="AbzQdMxJWZO2URxCIheY-49">
          <mxGeometry relative="1" as="geometry" />
        </mxCell>
        <mxCell id="AbzQdMxJWZO2URxCIheY-53" style="edgeStyle=orthogonalEdgeStyle;endArrow=block;strokeColor=#8e24aa;" edge="1" parent="1" source="AbzQdMxJWZO2URxCIheY-27" target="AbzQdMxJWZO2URxCIheY-50">
          <mxGeometry relative="1" as="geometry" />
        </mxCell>
        <mxCell id="AbzQdMxJWZO2URxCIheY-54" style="edgeStyle=orthogonalEdgeStyle;endArrow=block;strokeColor=#8e24aa;" edge="1" parent="1" source="AbzQdMxJWZO2URxCIheY-27" target="AbzQdMxJWZO2URxCIheY-51">
          <mxGeometry relative="1" as="geometry" />
        </mxCell>
      </root>
    </mxGraphModel>
  </diagram>
</mxfile>
